<svg width="25.500000" height="29.750061" viewBox="0 0 25.5 29.7501" fill="none" xmlns="http://www.w3.org/2000/svg" xmlns:xlink="http://www.w3.org/1999/xlink">
	<desc>
			Created with Pixso.
	</desc>
	<defs/>
	<path id="Vector 449 (Stroke)" d="M16.4551 0.134521C16.8818 0.372437 17.0908 0.870728 16.9629 1.3421L14.1406 11.6875L24.4375 11.6875C24.8604 11.6875 25.2432 11.9386 25.4121 12.3266C25.5811 12.7146 25.5029 13.1657 25.2139 13.475L10.3389 29.4125C10.0059 29.7697 9.47168 29.8535 9.04492 29.6156C8.61816 29.3776 8.40918 28.8793 8.53711 28.408L11.3594 18.0625L1.0625 18.0625C0.639648 18.0625 0.256836 17.8115 0.0878906 17.4235C-0.0800781 17.0355 -0.00292969 16.5844 0.286133 16.2751L15.1611 0.33757C15.4941 -0.0196228 16.0283 -0.103409 16.4551 0.134521Z" fill="#262626" fill-opacity="1.000000" fill-rule="evenodd"/>
</svg>
